<?xml version="1.0" standalone="no"?>
<!DOCTYPE svg PUBLIC "-//W3C//DTD SVG 20010904//EN"
 "http://www.w3.org/TR/2001/REC-SVG-20010904/DTD/svg10.dtd">
<svg version="1.0" xmlns="http://www.w3.org/2000/svg"
 width="2405.000000pt" height="2405.000000pt" viewBox="0 0 2405.000000 2405.000000"
 preserveAspectRatio="xMidYMid meet">
<metadata>
Created by potrace 1.11, written by Peter Selinger 2001-2013
</metadata>
<g transform="translate(0.000000,2405.000000) scale(0.100000,-0.100000)"
fill="#000000" stroke="none">
<path d="M11986 24035 c-15 -8 -32 -15 -37 -15 -5 0 -34 -12 -66 -26 -32 -14
-69 -31 -83 -36 -14 -6 -34 -14 -45 -19 -11 -5 -87 -36 -170 -69 -82 -34 -164
-68 -180 -75 -38 -17 -87 -37 -100 -41 -5 -1 -57 -23 -115 -47 -58 -24 -368
-153 -690 -286 -550 -227 -677 -280 -725 -301 -11 -5 -85 -36 -165 -69 -232
-96 -634 -262 -1235 -511 -308 -128 -636 -263 -730 -302 -93 -39 -190 -79
-215 -90 -60 -26 -64 -27 -225 -93 -77 -31 -153 -63 -170 -70 -16 -8 -158 -66
-315 -131 -157 -64 -375 -155 -485 -201 -110 -47 -204 -86 -210 -87 -11 -3
-10 -3 -185 -76 -175 -73 -174 -73 -185 -76 -5 -1 -111 -45 -235 -97 -124 -52
-342 -143 -485 -202 -143 -58 -273 -112 -290 -120 -16 -7 -55 -23 -85 -35 -30
-12 -68 -28 -85 -35 -16 -8 -109 -46 -205 -85 -96 -40 -188 -78 -205 -85 -16
-8 -86 -37 -155 -65 -69 -28 -150 -61 -180 -74 -30 -13 -88 -37 -128 -52 -88
-34 -59 19 -275 -504 -235 -568 -377 -911 -394 -950 -8 -19 -18 -44 -23 -55
-4 -11 -19 -47 -33 -80 -14 -33 -68 -163 -120 -290 -243 -591 -361 -874 -383
-923 -13 -29 -24 -55 -24 -57 0 -4 -244 -594 -285 -690 -14 -32 -31 -72 -168
-405 -46 -113 -155 -376 -242 -585 -86 -209 -191 -461 -231 -560 -41 -99 -79
-189 -84 -200 -7 -17 -63 -152 -90 -220 -4 -11 -15 -37 -24 -58 -10 -20 -37
-87 -62 -147 -24 -61 -53 -129 -63 -153 -11 -23 -148 -355 -306 -737 -157
-382 -292 -708 -300 -725 -7 -16 -34 -82 -60 -145 -45 -109 -55 -133 -101
-240 -10 -24 -19 -47 -20 -50 0 -3 -5 -16 -11 -30 -6 -14 -28 -65 -48 -115
-20 -49 -43 -103 -50 -120 -14 -31 -72 -173 -107 -260 -11 -27 -31 -74 -44
-103 -13 -29 -24 -56 -24 -60 0 -4 -7 -20 -15 -36 -8 -15 -13 -32 -10 -36 3
-5 173 -63 378 -130 204 -67 410 -134 457 -150 47 -16 240 -79 430 -140 190
-62 410 -134 490 -160 80 -27 314 -103 520 -170 206 -67 413 -135 460 -150 47
-15 198 -65 335 -109 138 -45 257 -84 265 -88 8 -3 20 -7 26 -8 9 -2 403 -131
889 -290 55 -18 282 -92 505 -165 223 -72 443 -145 490 -160 143 -48 805 -264
810 -265 6 -1 158 -50 490 -159 140 -46 424 -139 630 -206 206 -67 422 -138
480 -157 58 -19 110 -36 115 -37 6 -2 17 -6 25 -9 17 -6 212 -71 220 -72 3 -1
59 -19 125 -40 66 -22 122 -40 125 -40 3 -1 12 -4 20 -8 8 -3 184 -60 390
-127 497 -162 812 -264 940 -307 58 -19 110 -36 115 -37 6 -1 116 -37 245 -80
129 -43 242 -79 251 -81 8 -2 32 -10 52 -19 20 -8 37 -12 37 -9 0 3 6 1 13 -5
6 -6 14 -10 17 -10 5 1 312 -99 890 -287 124 -41 304 -100 400 -131 96 -31
179 -59 184 -62 10 -6 -25 59 -109 198 -28 47 -56 96 -63 110 -7 14 -18 34
-25 45 -20 33 -110 187 -132 226 -26 47 -204 350 -216 369 -19 30 -213 367
-242 420 -16 30 -38 67 -49 82 -10 14 -18 29 -18 32 0 4 -11 23 -24 44 -19 30
-230 391 -296 507 -9 17 -52 90 -95 164 -43 74 -83 144 -89 155 -6 12 -38 66
-70 121 -89 152 -178 304 -346 595 -84 146 -160 276 -169 290 -9 14 -21 34
-27 45 -46 85 -129 223 -142 238 -8 9 -19 17 -24 17 -10 0 -396 157 -738 300
-36 15 -200 82 -365 150 -165 67 -313 128 -330 135 -16 7 -93 39 -170 70 -77
31 -153 63 -170 70 -36 16 -143 60 -585 240 -184 75 -348 143 -365 150 -16 7
-217 90 -445 183 -482 198 -466 191 -505 207 -16 7 -131 54 -255 105 -124 50
-238 98 -255 105 -16 8 -92 39 -167 69 -598 242 -763 313 -760 327 3 12 227
559 252 614 5 11 46 110 91 220 45 110 92 223 105 252 13 28 24 55 24 58 0 4
6 21 14 38 27 62 96 228 96 232 0 2 12 30 26 62 14 32 29 67 34 78 5 11 45
110 90 220 45 110 90 218 99 240 10 22 26 60 36 85 10 25 23 59 31 75 7 17 90
217 184 445 94 228 178 429 185 445 7 17 27 66 45 110 17 44 37 94 45 110 7
17 25 59 39 95 15 36 31 74 36 85 5 11 48 115 95 230 48 116 92 215 98 222 7
6 116 54 242 106 296 122 857 355 1005 417 63 26 194 80 290 120 96 39 189 78
205 85 17 7 66 27 110 45 44 18 99 41 122 51 23 11 45 19 48 19 3 0 25 8 48
19 41 18 418 175 837 347 113 47 214 89 225 94 11 5 119 50 240 100 561 231
565 233 571 254 6 19 58 148 89 221 7 17 52 125 100 240 48 116 93 224 100
240 7 17 27 64 43 105 38 94 129 315 147 355 7 17 34 82 59 145 49 121 52 128
84 200 11 25 88 212 172 415 84 204 163 397 177 430 14 33 29 69 33 80 4 11
15 36 23 55 9 19 70 168 137 330 67 162 130 314 141 337 10 24 19 45 19 48 0
4 8 25 19 48 10 23 44 105 76 182 31 77 63 154 70 170 7 17 36 86 65 155 28
69 61 150 74 180 13 30 72 172 131 315 59 143 112 268 117 278 11 21 2 21 -36
2z"/>
<path d="M12243 15849 c40 -73 245 -424 298 -514 10 -16 24 -41 32 -55 7 -14
80 -140 162 -280 179 -308 158 -272 295 -508 61 -107 136 -234 166 -284 30
-50 54 -93 54 -95 0 -4 54 -96 100 -173 5 -8 38 -64 73 -125 35 -60 162 -279
282 -485 120 -206 226 -388 235 -405 10 -16 41 -70 70 -120 29 -49 62 -108 75
-130 12 -22 46 -80 75 -130 29 -49 66 -115 83 -145 16 -30 36 -62 43 -71 8 -8
14 -20 14 -25 0 -29 53 -67 145 -105 291 -118 373 -152 400 -164 30 -13 612
-252 775 -318 247 -100 712 -292 758 -313 29 -13 56 -24 60 -24 4 0 65 -25
137 -55 71 -30 272 -112 445 -184 895 -367 1068 -438 1215 -498 88 -36 174
-71 190 -78 17 -7 120 -50 230 -94 110 -45 223 -91 250 -103 97 -40 110 -46
160 -67 28 -11 106 -43 175 -71 69 -28 139 -57 155 -65 17 -7 42 -17 58 -20
27 -7 34 -23 19 -40 -5 -6 -19 -37 -32 -70 -13 -33 -31 -78 -40 -100 -31 -72
-87 -207 -163 -390 -288 -699 -415 -1004 -427 -1030 -5 -11 -19 -45 -31 -75
-11 -30 -27 -68 -34 -85 -8 -16 -37 -86 -65 -155 -48 -119 -91 -221 -110 -265
-5 -11 -64 -153 -131 -315 -67 -162 -130 -314 -140 -337 -11 -23 -19 -45 -19
-48 0 -4 -6 -21 -14 -38 -8 -18 -59 -140 -114 -272 -55 -132 -143 -346 -196
-475 -54 -129 -103 -240 -109 -247 -7 -6 -183 -82 -392 -168 -209 -87 -398
-165 -420 -174 -22 -10 -60 -26 -85 -37 -24 -10 -47 -19 -50 -20 -3 0 -16 -5
-30 -11 -14 -6 -119 -50 -235 -97 -115 -48 -223 -93 -240 -101 -16 -7 -93 -39
-170 -70 -191 -78 -615 -254 -640 -265 -11 -5 -60 -26 -110 -46 -49 -20 -103
-42 -120 -49 -16 -8 -70 -30 -120 -50 -49 -19 -99 -40 -110 -45 -11 -5 -49
-21 -85 -36 -36 -14 -80 -32 -97 -40 -18 -8 -50 -21 -70 -30 -21 -8 -47 -19
-58 -24 -11 -5 -159 -66 -330 -136 -170 -70 -314 -131 -320 -135 -5 -5 -15 -9
-22 -9 -7 0 -61 -21 -120 -46 l-108 -46 -124 -301 c-179 -436 -201 -487 -222
-534 -10 -24 -19 -45 -19 -48 0 -3 -9 -24 -19 -48 -11 -23 -75 -175 -141 -337
-166 -402 -359 -869 -375 -905 -8 -16 -99 -237 -203 -490 -105 -253 -268 -647
-362 -875 -95 -228 -187 -451 -205 -495 -34 -84 -129 -312 -148 -355 -6 -14
-11 -27 -12 -30 -1 -3 -8 -21 -17 -41 -9 -20 -19 -47 -23 -60 -4 -13 -12 -30
-17 -37 -6 -6 -8 -12 -6 -12 6 0 290 115 323 130 11 5 184 77 385 160 201 83
385 159 410 170 45 19 409 170 680 282 80 33 199 82 265 110 66 27 167 69 225
92 198 82 865 358 895 371 17 8 163 68 325 135 424 175 870 359 905 375 33 14
517 214 605 250 30 12 188 78 350 145 162 67 399 165 525 217 127 52 244 101
260 108 17 7 82 35 145 61 63 26 147 60 185 76 39 16 79 33 90 38 11 4 58 24
105 43 47 20 150 63 230 96 80 32 332 137 560 231 228 95 465 192 525 216 61
25 119 48 130 54 42 19 113 49 185 79 166 67 194 80 202 95 9 15 91 213 282
676 54 129 117 282 141 340 24 58 112 269 195 470 231 559 241 583 255 615 7
17 45 107 83 200 70 170 202 489 497 1200 86 209 195 472 242 585 100 241 148
358 239 575 36 88 81 196 99 240 34 82 103 249 350 845 79 190 236 570 350
845 114 275 257 619 317 765 60 146 152 369 205 495 52 127 100 244 108 260
37 84 155 378 153 380 -2 2 -165 55 -363 120 -198 64 -398 129 -445 145 -47
15 -170 56 -275 90 -104 33 -197 64 -205 67 -8 4 -17 7 -20 8 -8 2 -75 23
-295 95 -115 38 -392 128 -615 200 -223 73 -457 149 -520 170 -63 21 -297 98
-520 170 -223 73 -457 149 -520 170 -63 21 -277 91 -475 155 -198 65 -441 144
-540 177 -99 32 -187 61 -195 63 -8 2 -76 24 -150 48 -74 25 -317 104 -540
177 -223 72 -436 142 -475 155 -80 26 -905 296 -1185 387 -102 33 -237 77
-300 98 -222 74 -865 284 -875 286 -5 1 -57 18 -115 37 -58 19 -220 72 -360
117 -140 45 -262 85 -270 88 -8 3 -17 6 -20 7 -3 0 -88 28 -190 62 -102 34
-367 120 -590 193 -223 72 -457 149 -520 170 -119 39 -259 85 -875 285 -198
65 -364 120 -368 122 -5 3 2 -14 16 -38z"/>
</g>
</svg>
